Coordinates
version=1
nRows=17
nColumns=36
inDegrees=yes

Units are S.I. units (second, meters, Newtons, ...)
If the header above contains a line with 'inDegrees', this indicates whether rotational values are in degrees (yes) or radians (no).

endheader
time	pelvis_tilt	pelvis_list	pelvis_rotation	pelvis_tx	pelvis_ty	pelvis_tz	hip_flexion_r	hip_adduction_r	hip_rotation_r	knee_angle_r	knee_angle_r_beta	ankle_angle_r	subtalar_angle_r	mtp_angle_r	hip_flexion_l	hip_adduction_l	hip_rotation_l	knee_angle_l	knee_angle_l_beta	ankle_angle_l	subtalar_angle_l	mtp_angle_l	lumbar_extension	lumbar_bending	lumbar_rotation	arm_flex_r	arm_add_r	arm_rot_r	elbow_flex_r	pro_sup_r	arm_flex_l	arm_add_l	arm_rot_l	elbow_flex_l	pro_sup_l
      0.00000000	    -13.27916544	      3.65703577	    -10.51062755	      1.60968954	      0.95192719	      0.08195128	     23.11179266	    -12.88538559	     -8.24728934	      3.85328368	      0.06725249	     -0.64866403	     -6.43482764	     -6.92781611	     14.48041123	     -8.09606583	    -12.72961483	      1.97961925	      0.03455087	      6.53205434	      5.65006141	     -6.92781611	      0.53070782	     -5.17507462	     -4.93053839	     34.87227407	     -2.15336069	     59.89573805	    125.47938936	     81.95081779	     43.33851985	     -7.08177632	     67.60539140	    122.27382723	     88.97590345
      0.01666670	    -13.90777023	      3.66888597	    -11.42412191	      1.60646135	      0.95156086	      0.09256291	     24.62623814	    -12.24544277	     -9.43102397	      4.41309085	      0.07702297	     -1.83267685	     -1.99049858	     -7.01952478	     16.28333740	     -8.77132288	    -15.69130868	      3.50071268	      0.06109896	      1.33077891	      0.10388528	     -7.01952478	     -2.13536439	     -4.76149575	     -2.66535081	     36.15040611	     -2.85981371	     66.59841621	    129.50298411	     98.15833765	     44.75442356	     -7.65578521	     65.94883389	    128.47875555	    106.48626496
      0.03333330	    -14.05582692	      2.71953107	     -9.96691141	      1.62473427	      0.94859411	      0.11514119	     22.25048438	    -10.97017389	    -10.23971903	      2.18656353	      0.03816273	     -3.92530674	     -2.42434071	     -7.13193308	     16.34324417	     -9.73491673	    -15.32884003	      3.32784879	      0.05808192	      0.35219559	     -1.94714369	     -7.13193308	     -1.11915040	     -4.25987193	     -3.25371136	     35.08782111	     -1.30591877	     63.66696023	    130.67854745	    102.56171199	     44.12931312	     -7.02808238	     64.18605791	    128.11965911	    110.16566989
      0.05000000	    -14.00930167	      2.61780102	     -9.39001636	      1.62813729	      0.94685277	      0.11884271	     21.47929464	    -10.97272328	    -10.67909908	      1.81997573	      0.03176457	     -3.88870666	     -0.22225508	     -7.25729255	     16.78478416	    -10.12372463	    -15.65503729	      4.13386486	      0.07214955	      1.05046661	     -2.57492950	     -7.25729255	     -0.58133820	     -4.42066092	     -2.96098690	     34.90707531	     -1.01948713	     63.06352438	    131.34877560	    103.52110633	     44.20761901	     -5.87898165	     62.82861028	    127.60866883	    110.54495631
      0.06666670	    -14.18519376	      2.54724049	     -9.09316891	      1.62688201	      0.94670243	      0.12409466	     21.45083603	    -10.88227148	    -10.91780488	      2.10225710	      0.03669131	     -3.77931525	      0.73372813	     -7.26148791	     17.55010051	    -10.72105130	    -15.63022109	      5.52135803	      0.09636588	      2.02134883	     -2.38337366	     -7.26148791	      0.03425875	     -4.37701194	     -2.45028268	     35.35495833	     -1.25160291	     63.31868870	    131.62416248	    103.78118320	     44.16772064	     -4.54313956	     61.69246694	    127.11855636	    110.24261351
      0.08333330	    -14.34877095	      2.63819659	     -8.90876317	      1.63095592	      0.94489486	      0.12797102	     21.75238031	    -11.00137091	    -11.34965883	      2.78352105	      0.04858161	     -3.35276374	      1.69639491	     -7.26662804	     18.16065786	    -11.13703077	    -15.76269901	      6.81822372	      0.11900045	      3.04527545	     -1.65225466	     -7.26662804	      0.85744554	     -4.36704125	     -2.05205785	     35.76035863	     -1.51861035	     63.99033889	    132.04836554	    104.07612287	     43.93748961	     -2.90293566	     60.78081931	    126.36886621	    109.82308423
      0.10000000	    -14.48344933	      2.60812308	     -8.83523694	      1.63460687	      0.94749370	      0.13611471	     22.01341253	    -10.86361896	    -11.62121070	      3.44564739	      0.06013789	     -2.96299645	      2.15385010	     -7.27413983	     18.65019241	    -11.72044389	    -15.85769462	      7.88640035	      0.13764365	      3.97787353	     -0.58605357	     -7.27413983	      1.50010857	     -4.15622858	     -1.51172241	     35.74473837	     -1.95305049	     64.70874580	    132.20886136	    104.31549527	     43.32298415	     -1.81092559	     60.89963067	    126.26703006	    109.21294042
      0.11666670	    -14.44764746	      2.38875531	     -8.90937438	      1.64228466	      0.94819981	      0.14955507	     21.75122552	    -10.33205237	    -11.42506986	      3.66514532	      0.06396885	     -2.66875295	      1.94231172	     -7.31097345	     18.59855962	    -12.49780384	    -16.03627069	      8.56712522	      0.14952454	      4.61901027	      0.23058311	     -7.31097345	      2.30212574	     -3.96249094	     -0.98858017	     34.94982505	     -2.36162562	     64.47318460	    131.93538553	    102.88106242	     42.45096575	     -1.47597294	     61.03903717	    126.33214937	    106.67024114
      0.13333330	    -14.50451078	      2.23472543	     -9.01504352	      1.64507498	      0.94357722	      0.15254853	     21.76459052	     -9.90604821	    -10.96114172	      4.07571871	      0.07113471	     -2.17050223	      1.49701563	     -7.34004306	     19.03295078	    -13.27675474	    -15.85875487	      9.89410773	      0.17268476	      5.43649486	      0.55248198	     -7.34004306	      3.26006336	     -3.80435282	     -0.83986564	     34.20357632	     -2.62319592	     63.96862984	    132.20518836	    102.88901958	     41.95515237	     -0.87317141	     60.08083477	    125.96755922	    106.02322008
      0.15000000	    -14.65460327	      2.03294386	     -8.91014040	      1.64556506	      0.94864794	      0.15825341	     21.75339194	     -9.45325108	    -10.71074359	      4.36873999	      0.07624890	     -1.51055672	      1.11078700	     -7.34418892	     19.74496285	    -14.10520521	    -15.47405779	     11.19925223	      0.19546383	      6.07973757	      0.81382411	     -7.34418892	      3.93561660	     -3.58492517	     -0.81403045	     33.72182944	     -2.97310259	     64.06462276	    132.31580604	    102.69623054	     41.57579621	     -0.74823698	     59.58593974	    125.54152433	    105.68615759
      0.16666670	    -14.73785309	      1.93074634	     -8.82431452	      1.64113554	      0.95102826	      0.16074396	     21.94751964	     -9.14343934	    -10.38215057	      4.92293218	      0.08592138	     -0.61392394	      0.77964506	     -7.34593019	     20.49083404	    -14.78368300	    -15.11889424	     12.48879300	      0.21797056	      6.62354837	      1.00144003	     -7.34593019	      4.19708803	     -3.35773635	     -0.70637367	     34.31990372	     -3.39994659	     64.19684526	    132.28767960	    102.65652019	     42.07651234	     -0.59455556	     59.26490660	    125.36097556	    105.57839176
      0.18333330	    -15.05362984	      1.78489092	     -8.56330772	      1.64154381	      0.95146949	      0.16668982	     22.37029759	     -8.75302847	    -10.31553565	      5.50269704	      0.09604018	      0.24506947	      0.34695508	     -7.34844208	     21.70429654	    -15.54982265	    -14.67411283	     13.87717318	      0.24220236	      7.08265181	      1.33861303	     -7.34844208	      4.55606289	     -3.25431870	     -0.67652218	     35.12387464	     -3.66544715	     64.75290371	    132.65944824	    102.54558798	     42.48087518	     -0.41846242	     59.26575363	    125.26845777	    105.38812012
      0.20000000	    -15.09384199	      1.69476503	     -8.34199556	      1.64510479	      0.95366158	      0.16920605	     22.39803611	     -8.45783215	    -10.34809071	      5.81755726	      0.10153553	      0.97946744	      0.05811075	     -7.35056688	     22.31557608	    -16.06497602	    -14.43529787	     14.83587929	      0.25893494	      7.53857653	      1.57649649	     -7.35056688	      4.81151970	     -3.12685505	     -0.71785252	     35.84416605	     -3.52893937	     65.01381666	    132.80636409	    102.39418918	     42.77713773	     -0.38087024	     59.13720889	    125.01157394	    105.19134177
      0.21666670	    -14.94981662	      1.52914786	     -8.19171124	      1.65321043	      0.95491561	      0.17607830	     21.85375071	     -8.02543338	    -10.49781288	      5.61611319	      0.09801967	      1.50748955	     -0.17469001	     -7.36885876	     22.30103825	    -16.60048299	    -14.49933752	     15.35507504	      0.26799662	      7.67514184	      1.96846848	     -7.36885876	      5.32121922	     -2.91720307	     -1.18912219	     36.12680856	     -2.93913135	     65.52279103	    132.07925055	    100.76322602	     42.15936149	     -1.01215305	     58.61763028	    125.22372930	    103.52792850
      0.23333330	    -14.72364353	      1.39552440	     -8.12658892	      1.66402973	      0.95556086	      0.17988816	     20.94481128	     -7.61611410	    -10.59450862	      5.04069650	      0.08797675	      1.90618566	     -0.36099035	     -7.37031924	     21.69008711	    -16.94476186	    -14.64878918	     15.22958623	      0.26580642	      7.70825576	      2.32096056	     -7.37031924	      6.07295205	     -2.91237763	     -1.24666039	     35.34694588	     -2.77017104	     65.46889655	    131.93967838	    100.65415828	     41.63209028	     -1.31111021	     58.41400759	    124.89637405	    103.41139212
      0.25000000	    -14.56327370	      1.28375689	     -8.01543856	      1.66407318	      0.95613420	      0.17998721	     20.17649356	     -7.29432572	    -10.52649070	      4.50793446	      0.07867830	      2.19222625	     -0.69177433	     -7.37453537	     21.28719080	    -17.29537508	    -14.86000697	     15.18996532	      0.26511491	      8.13634459	      3.13475534	     -7.37453537	      6.66335101	     -2.83695278	     -1.78338599	     35.17764671	     -2.34866471	     65.50793901	    131.62880852	    100.36980451	     41.59275874	     -1.45923884	     57.98829209	    124.66350398	    102.99774565
      0.26666670	    -14.50118853	      1.17959181	     -7.89895854	      1.66712482	      0.95602579	      0.18272088	     19.54447845	     -6.98114448	    -10.48668818	      4.02634653	      0.07027300	      2.48139302	     -1.13131487	     -7.38752642	     20.99995277	    -17.60899540	    -14.96219367	     15.05716932	      0.26279718	      8.44963047	      3.47935769	     -7.38752642	      7.24284345	     -2.77041161	     -2.40538332	     35.07489557	     -1.84814008	     66.12829663	    131.26566561	     98.82912103	     41.84081898	     -1.82117194	     58.06406864	    124.70145685	    101.34468335
